<svg width="22" height="26" viewBox="0 0 22 26" fill="none" xmlns="http://www.w3.org/2000/svg">
<g id="X Icon">
<g id="Group 237455">
<path id="Vector (Stroke)" fill-rule="evenodd" clip-rule="evenodd" d="M11.6362 15.2158C10.2591 15.2158 9.14195 13.8885 9.14195 12.2506C9.14195 11.4207 9.42774 10.6725 9.8899 10.1336C10.0615 9.93344 10.0641 9.60585 9.89579 9.40187C9.72746 9.19788 9.4519 9.19474 9.28031 9.39486C8.65834 10.1202 8.27148 11.1313 8.27148 12.2506C8.27148 14.4602 9.77846 16.2506 11.6362 16.2506C12.5769 16.2506 13.4282 15.7908 14.0384 15.0513C14.2068 14.8473 14.2041 14.5197 14.0325 14.3196C13.861 14.1195 13.5854 14.1227 13.4171 14.3266C12.9637 14.876 12.3336 15.2158 11.6362 15.2158Z" fill="#677185"/>
<path id="Vector (Stroke)_2" fill-rule="evenodd" clip-rule="evenodd" d="M4.73572 16.5344C6.13456 18.5766 8.35557 20.6741 11.5612 20.6741C13.7353 20.6741 15.4659 19.7067 16.7932 18.4443C16.9789 18.2677 17.0081 17.9469 16.8584 17.7278C16.7088 17.5087 16.437 17.4742 16.2513 17.6508C15.0459 18.7973 13.501 19.655 11.5612 19.655C8.713 19.655 6.71453 17.8021 5.40734 15.8938C4.75469 14.941 4.28305 13.9857 3.97464 13.2677C3.8207 12.9094 3.70812 12.6118 3.63454 12.4054C3.61623 12.3541 3.60035 12.3084 3.58685 12.2689C3.6198 12.1774 3.66615 12.0528 3.72616 11.9009C3.86396 11.5521 4.07329 11.0608 4.3572 10.4972C4.92687 9.36645 5.78738 7.96373 6.95908 6.83336C7.14371 6.65524 7.17103 6.33422 7.02009 6.11634C6.86915 5.89845 6.59711 5.86622 6.41248 6.04434C5.13625 7.27555 4.21499 8.78521 3.61487 9.97642C3.31388 10.5739 3.09131 11.096 2.94343 11.4703C2.86945 11.6575 2.81404 11.8082 2.77674 11.9131C2.75809 11.9656 2.74395 12.0067 2.73429 12.0353C2.72945 12.0496 2.72573 12.0608 2.72312 12.0687L2.72004 12.0781L2.71912 12.081L2.71881 12.0819L2.7187 12.0823C2.71865 12.0824 2.71861 12.0825 3.12223 12.2636C2.71547 12.4346 2.71554 12.4348 2.71561 12.4351L2.71581 12.4357L2.71637 12.4375L2.71815 12.4434C2.71964 12.4482 2.72172 12.4549 2.7244 12.4634C2.72976 12.4805 2.73751 12.5048 2.74771 12.536C2.76811 12.5983 2.79828 12.6878 2.83854 12.8007C2.91905 13.0265 3.04011 13.3462 3.20436 13.7285C3.53234 14.492 4.03534 15.512 4.73572 16.5344ZM3.12223 12.2636L2.71547 12.4346C2.68103 12.3205 2.68215 12.1957 2.71861 12.0825L3.12223 12.2636Z" fill="#677185"/>
<path id="Vector (Stroke)_3" fill-rule="evenodd" clip-rule="evenodd" d="M17.3484 16.8595C17.5246 17.045 17.7953 17.0274 17.9531 16.8202C18.7814 15.7322 19.3757 14.5993 19.7627 13.7407C19.9566 13.3105 20.0994 12.9471 20.1943 12.6895C20.2417 12.5606 20.2772 12.4581 20.3012 12.3867C20.3132 12.3511 20.3223 12.3232 20.3286 12.3037C20.3317 12.2939 20.3342 12.2863 20.3359 12.2808L20.338 12.2742L20.3386 12.2721L20.3388 12.2714L20.3389 12.2711C20.3389 12.271 20.339 12.2709 19.9364 12.0993C20.3367 11.9205 20.3366 11.9203 20.3366 11.9201L20.3358 11.9176L20.3339 11.9119C20.3323 11.9072 20.3302 11.9006 20.3273 11.8921C20.3217 11.8753 20.3135 11.8511 20.3027 11.8202C20.2812 11.7584 20.2495 11.6694 20.2073 11.5571C20.1229 11.3327 19.9965 11.0147 19.8266 10.6342C19.4873 9.87442 18.9714 8.85938 18.2654 7.84183C16.8574 5.81281 14.6506 3.71754 11.5476 3.71754C10.1481 3.71754 8.92624 4.14582 7.87793 4.80428C7.66932 4.93532 7.59053 5.24042 7.70196 5.48575C7.81338 5.73108 8.07282 5.82374 8.28144 5.6927C9.21859 5.10406 10.3029 4.72474 11.5476 4.72474C14.2889 4.72474 16.2764 6.56856 17.6018 8.47862C18.2624 9.43061 18.7479 10.3851 19.0683 11.1025C19.2283 11.4606 19.3464 11.7581 19.424 11.9644C19.4436 12.0167 19.4606 12.0631 19.4751 12.1031C19.4571 12.1548 19.4348 12.2172 19.4083 12.2892C19.3212 12.5259 19.188 12.8652 19.006 13.269C18.6412 14.0782 18.0844 15.1378 17.315 16.1484C17.1572 16.3556 17.1722 16.674 17.3484 16.8595ZM19.9364 12.0993L20.3367 11.9205C20.3731 12.0332 20.3739 12.1575 20.339 12.2709L19.9364 12.0993Z" fill="#677185"/>
<path id="Vector (Stroke)_4" fill-rule="evenodd" clip-rule="evenodd" d="M14.2679 13.2944C14.4905 13.3423 14.7014 13.1501 14.7389 12.8651C14.7676 12.6465 14.784 12.4204 14.784 12.1873C14.784 9.9532 13.3693 8.141 11.6234 8.141C11.4413 8.141 11.2647 8.1619 11.094 8.19869C10.8713 8.24667 10.7212 8.51664 10.7587 8.80169C10.7961 9.08674 11.007 9.27893 11.2297 9.23095C11.3592 9.20303 11.4904 9.18777 11.6234 9.18777C12.9176 9.18777 13.9663 10.5311 13.9663 12.1873C13.9663 12.3576 13.9544 12.5255 13.9326 12.6914C13.8951 12.9764 14.0452 13.2464 14.2679 13.2944Z" fill="#677185"/>
<path id="Vector (Stroke)_5" fill-rule="evenodd" clip-rule="evenodd" d="M8.27148 12.2506C8.27148 14.4602 9.77759 16.2506 11.6362 16.2506C12.5778 16.2506 13.4283 15.7907 14.0384 15.0513C14.2068 14.8473 14.2041 14.5197 14.0325 14.3196C13.861 14.1195 13.5854 14.1227 13.4171 14.3266C12.9637 14.8761 12.3343 15.2158 11.6362 15.2158C10.2583 15.2158 9.14195 13.8886 9.14195 12.2506C9.14195 11.4216 9.42779 10.6725 9.8899 10.1336C10.0615 9.93344 10.0641 9.60585 9.89579 9.40187C9.72746 9.19788 9.4519 9.19474 9.28031 9.39486C8.65829 10.1203 8.27148 11.1323 8.27148 12.2506Z" fill="#677185"/>
<path id="Vector (Stroke)_6" fill-rule="evenodd" clip-rule="evenodd" d="M19.0008 20.8952C19.1664 20.6984 19.1664 20.3794 19.0008 20.1826L4.96479 3.49654C4.79926 3.29976 4.53089 3.29976 4.36536 3.49654C4.19983 3.69332 4.19983 4.01236 4.36536 4.20914L18.4014 20.8952C18.5669 21.092 18.8353 21.092 19.0008 20.8952Z" fill="#677185"/>
</g>
</g>
</svg>
