<svg width="52" height="41" viewBox="0 0 52 41" fill="none" xmlns="http://www.w3.org/2000/svg">
<rect y="0.5" width="52" height="40" rx="20" fill="#1F1F1F"/>
<path d="M15 12.5V18.5H21" stroke="white" stroke-width="2" stroke-linecap="round" stroke-linejoin="round"/>
<path d="M17.51 23.5004C18.1584 25.3408 19.3873 26.9206 21.0117 28.0018C22.636 29.083 24.5677 29.607 26.5157 29.4949C28.4637 29.3828 30.3226 28.6406 31.8121 27.3802C33.3017 26.1198 34.3413 24.4094 34.7742 22.5068C35.2072 20.6042 35.0101 18.6124 34.2126 16.8315C33.4152 15.0507 32.0605 13.5772 30.3528 12.6332C28.6451 11.6892 26.6769 11.3257 24.7447 11.5976C22.8125 11.8694 21.0209 12.7619 19.64 14.1404L15 18.5004" stroke="white" stroke-width="2" stroke-linecap="round" stroke-linejoin="round"/>
</svg>
